# xmcd
#
# Track frame offsets: 
#        150
#        12880
#        26102
#        41058
#        57666
#        71809
#        84510
#        100975
#        116470
#        132149
#        146731
#
# Disc length: 2176 seconds
#
# Revision: 4
# Processed by: cddbd v1.5.2PL0 Copyright (c) Steve Scherf et al.
# Submitted via: ExactAudioCopy v1.3
#
DISCID=9d087e0b
DTITLE=Clay Walker - Hypnotize The Moon
DYEAR=1995
DGENRE=Country
TTITLE0=Who Needs You Baby
TTITLE1=I Won't Have The Heart
TTITLE2=Let Me Take The Heartache (Off Your Hands)
TTITLE3=Hypnotize The Moon
TTITLE4=Hand Me Down Heart
TTITLE5=Only On Days That End In ''Y''
TTITLE6=Where Were You
TTITLE7=Loving You Comes Naturally To Me
TTITLE8=Bury The Shovel
TTITLE9=A Cowboy's Toughest Ride
TTITLE10=Love Me Like You Love Me
EXTD=YEAR: 1995
EXTT0=
EXTT1=
EXTT2=
EXTT3=
EXTT4=
EXTT5=
EXTT6=
EXTT7=
EXTT8=
EXTT9=
EXTT10=
PLAYORDER=
